<svg version="1.1" id="Layer_1" xmlns="http://www.w3.org/2000/svg" xmlns:xlink="http://www.w3.org/1999/xlink" x="0px" y="0px"
	 width="100%" viewBox="0 0 620 148" enable-background="new 0 0 620 148" xml:space="preserve">
<path fill="none" opacity="1.000000" stroke="#ffffff" stroke-linecap="round" stroke-linejoin="round" stroke-width="7.000000"
	d="
M104.750000,32.000000 
	C104.175377,33.867401 103.063103,35.641769 101.463966,36.426582 
	C90.162941,41.972801 82.169151,51.377193 73.503838,60.003857 
	C68.396393,65.088524 62.178314,68.908417 57.425510,74.435951 
	C55.624233,76.530838 52.452309,76.593620 50.042351,75.860733 
	C47.284576,75.022079 47.142128,72.017059 47.026649,69.498779 
	C46.868378,66.047340 47.575527,62.451561 45.000000,59.500000 
"/>
<path fill="none" opacity="1.000000" stroke="#ffffff" stroke-linecap="round" stroke-linejoin="round" stroke-width="6.000000"
	d="
M181.500000,72.500000 
	C181.000000,71.166672 180.623123,69.770241 179.977997,68.511276 
	C177.603363,63.877193 171.235703,61.945358 167.000000,64.500000 
	C163.721603,66.477264 162.739136,72.501122 165.569946,76.449860 
	C168.478958,80.507668 171.028397,84.825844 174.437668,88.556961 
	C176.560944,90.880692 177.116028,94.935959 173.928513,95.702843 
	C169.225052,96.834450 164.708603,99.843201 159.500000,98.500000 
"/>
<path fill="none" opacity="1.000000" stroke="#ffffff" stroke-linecap="round" stroke-linejoin="round" stroke-width="7.000000"
	d="
M435.500000,43.500000 
	C429.600128,46.005249 426.921906,51.713593 424.224121,56.623154 
	C418.959869,66.203201 414.849884,76.436218 410.562103,86.526405 
	C408.354767,91.720879 406.461975,97.113083 407.462189,103.006416 
	C407.671204,104.237915 408.122406,105.188805 409.000000,106.000000 
"/>
<path fill="none" opacity="1.000000" stroke="#ffffff" stroke-linecap="round" stroke-linejoin="round" stroke-width="6.000000"
	d="
M101.500000,37.500000 
	C103.351219,43.204174 99.659599,47.761784 97.816071,52.427322 
	C93.644760,62.983921 88.699837,73.229019 84.781830,83.920044 
	C84.180641,85.560501 83.797623,87.519127 83.320511,89.096916 
	C82.605820,91.460396 82.687416,95.484436 87.500000,95.000000 
"/>
<path fill="none" opacity="1.000000" stroke="#ffffff" stroke-linecap="round" stroke-linejoin="round" stroke-width="7.000000"
	d="
M582.500000,37.500000 
	C578.747009,37.138977 579.173584,40.761055 578.114136,42.566975 
	C570.994629,54.703003 562.526855,66.010979 556.040283,78.520897 
	C554.942566,80.637909 553.712891,82.935181 555.000000,85.500000 
"/>
<path fill="none" opacity="1.000000" stroke="#ffffff" stroke-linecap="round" stroke-linejoin="round" stroke-width="7.000000"
	d="
M52.500000,30.500000 
	C50.500000,37.833332 48.436859,45.150303 46.529873,52.507744 
	C45.723484,55.618916 44.923985,58.270733 42.138916,60.661808 
	C37.762100,64.419441 36.550804,70.458672 34.094772,75.545753 
	C30.397650,83.203453 27.239517,91.128998 24.068386,99.027458 
	C23.310438,100.915314 22.267782,103.054756 23.500000,105.250000 
"/>
<path fill="none" opacity="1.000000" stroke="#ffffff" stroke-linecap="round" stroke-linejoin="round" stroke-width="6.000000"
	d="
M489.500000,95.500000 
	C487.086487,91.166664 489.054199,86.727486 489.743683,82.540123 
	C490.150299,80.070526 490.391846,78.000000 489.309937,75.571510 
	C484.751770,76.105156 481.323334,79.236183 477.513306,81.522163 
	C473.018829,84.218811 469.171692,88.231369 463.498688,88.469002 
	C461.394073,88.557159 461.017822,90.326355 460.000000,91.500000 
"/>
<path fill="none" opacity="1.000000" stroke="#ffffff" stroke-linecap="round" stroke-linejoin="round" stroke-width="8.000000"
	d="
M411.000000,34.000000 
	C413.379181,31.366867 416.653046,32.699791 418.951508,33.215973 
	C425.596588,34.708340 432.359283,34.374378 439.022125,35.348701 
	C444.782043,36.190983 450.498047,37.622231 456.515930,37.281479 
	C458.567535,37.165306 460.469818,36.304436 462.500000,36.500000 
"/>
<path fill="none" opacity="1.000000" stroke="#ffffff" stroke-linecap="round" stroke-linejoin="round" stroke-width="7.000000"
	d="
M225.500000,69.500000 
	C220.076523,69.961472 214.665512,70.199814 209.505890,67.986275 
	C207.703949,67.213211 205.741547,67.047173 205.074875,69.025230 
	C202.244308,77.423615 197.198547,84.993156 195.932983,93.990570 
	C195.535507,96.816452 194.836273,100.161880 197.593353,101.267120 
	C200.125000,102.281990 203.507736,102.087769 206.074539,99.576172 
	C207.051514,98.620186 208.228439,98.096733 208.000000,96.500000 
"/>
<path fill="none" opacity="1.000000" stroke="#ffffff" stroke-linecap="round" stroke-linejoin="round" stroke-width="8.000000"
	d="
M314.000000,23.000000 
	C311.458191,29.015854 307.107208,33.990467 304.436310,39.971554 
	C300.516846,48.748615 296.166656,57.333336 292.000000,66.000000 
"/>
<path fill="none" opacity="1.000000" stroke="#ffffff" stroke-linecap="round" stroke-linejoin="round" stroke-width="7.000000"
	d="
M239.500000,23.500000 
	C239.629852,22.481392 239.486160,21.572203 238.445633,21.008858 
	C233.941971,21.748138 234.682587,26.487455 232.716324,29.159199 
	C225.109192,39.495831 217.358551,49.780987 210.907745,60.946697 
	C209.751022,62.948868 208.605881,64.964546 207.500000,67.000000 
"/>
<path fill="none" opacity="1.000000" stroke="#ffffff" stroke-linecap="round" stroke-linejoin="round" stroke-width="6.000000"
	d="
M140.500000,92.500000 
	C143.878891,87.501411 147.247559,82.499115 146.548599,75.589622 
	C143.009613,75.138336 140.428040,76.783646 137.991913,78.991066 
	C132.755386,83.735970 126.848068,87.613441 120.918846,91.371979 
	C118.769318,92.734581 115.413292,94.981087 113.161148,92.831184 
	C110.680847,90.463486 112.001274,87.080566 113.404533,83.957108 
	C115.329460,79.672523 118.022171,75.695274 119.000000,71.000000 
"/>
<path fill="none" opacity="1.000000" stroke="#ffffff" stroke-linecap="round" stroke-linejoin="round" stroke-width="6.000000"
	d="
M334.000000,26.500000 
	C335.517578,22.961884 335.234436,19.500765 333.773224,15.990332 
	C332.149353,12.089019 328.624878,10.393606 325.002686,12.006031 
	C321.857727,13.406004 319.529999,16.050114 316.060791,17.185677 
	C313.365051,18.068054 313.608246,20.942320 316.000000,22.250000 
"/>
<path fill="none" opacity="1.000000" stroke="#ffffff" stroke-linecap="round" stroke-linejoin="round" stroke-width="6.000000"
	d="
M250.500000,71.500000 
	C250.333328,71.500000 250.156921,71.536423 250.001404,71.494766 
	C242.349396,69.445427 237.803787,71.563713 234.005127,79.002617 
	C232.125336,82.683815 230.030884,86.296486 229.513412,90.501648 
	C229.230743,92.798874 230.059296,94.941696 232.055389,95.882462 
	C233.463867,96.546288 234.789200,94.617699 236.059021,94.165901 
	C244.141235,91.290291 247.681412,82.721336 255.392822,79.261154 
	C257.820923,78.171654 259.733124,74.729034 260.500000,71.500000 
"/>
<path fill="none" opacity="1.000000" stroke="#ffffff" stroke-linecap="round" stroke-linejoin="round" stroke-width="6.000000"
	d="
M336.500000,71.500000 
	C336.333344,71.500000 336.156891,71.536415 336.001404,71.494766 
	C328.349426,69.445427 323.803802,71.563721 320.005127,79.002625 
	C318.125366,82.683830 316.030914,86.296494 315.513428,90.501656 
	C315.230743,92.798874 316.059265,94.941696 318.055389,95.882462 
	C319.463898,96.546295 320.789215,94.617683 322.059021,94.165894 
	C330.141205,91.290283 333.681427,82.721336 341.392822,79.261162 
	C343.820923,78.171669 345.733124,74.729034 346.500000,71.500000 
"/>
<path fill="none" opacity="1.000000" stroke="#ffffff" stroke-linecap="round" stroke-linejoin="round" stroke-width="7.000000"
	d="
M551.500000,85.500000 
	C554.821838,85.103027 557.926514,86.614807 561.608582,85.305405 
	C564.885315,84.140160 567.864624,81.398598 571.276306,82.030342 
	C573.577576,84.625847 572.938171,87.618904 572.993225,90.500130 
	C573.134521,97.893578 578.162476,103.741882 585.500000,105.000000 
"/>
<path fill="none" opacity="1.000000" stroke="#ffffff" stroke-linecap="round" stroke-linejoin="round" stroke-width="7.000000"
	d="
M341.500000,80.000000 
	C342.900635,82.071747 342.644684,84.280479 341.987122,86.496178 
	C341.732819,87.352966 341.058350,88.163872 341.049805,89.000511 
	C341.020355,91.895073 340.471649,94.840279 343.453125,97.062889 
	C346.705505,99.487465 348.914734,96.984421 351.500000,96.000000 
"/>
<path fill="none" opacity="1.000000" stroke="#ffffff" stroke-linecap="round" stroke-linejoin="round" stroke-width="7.000000"
	d="
M255.500000,80.000000 
	C256.900635,82.071747 256.644684,84.280479 255.987091,86.496170 
	C255.732803,87.352966 255.058380,88.163872 255.049850,89.000519 
	C255.020355,91.895073 254.471649,94.840294 257.453125,97.062897 
	C260.705475,99.487473 262.914734,96.984421 265.500000,96.000000 
"/>
<path fill="none" opacity="1.000000" stroke="#ffffff" stroke-linecap="round" stroke-linejoin="round" stroke-width="6.000000"
	d="
M593.500000,63.500000 
	C593.530334,64.765167 593.380066,65.630783 592.058899,66.581818 
	C585.595581,71.234589 579.333313,76.166672 573.000000,81.000008 
"/>
<path fill="none" opacity="1.000000" stroke="#ffffff" stroke-linecap="round" stroke-linejoin="round" stroke-width="7.000000"
	d="
M293.000000,66.000000 
	C300.939087,68.847130 309.101746,70.698242 317.500000,71.500000 
"/>
<path fill="none" opacity="1.000000" stroke="#ffffff" stroke-linecap="round" stroke-linejoin="round" stroke-width="3.000000"
	d="
M454.500000,74.500000 
	C457.254211,75.894669 457.205872,75.878868 456.511475,78.003754 
	C455.493408,81.118973 454.412781,84.181709 453.889709,87.482521 
	C453.369385,90.766006 454.301392,92.054436 457.500122,92.007942 
	C460.166199,91.969193 462.833344,92.000000 465.500000,92.000000 
"/>
<path fill="none" opacity="1.000000" stroke="#ffffff" stroke-linecap="round" stroke-linejoin="round" stroke-width="7.000000"
	d="
M547.500000,77.500000 
	C545.902222,75.496086 544.532837,73.413918 543.414185,71.040436 
	C540.685974,65.251678 535.066406,63.434967 530.061829,67.084770 
	C522.261230,72.773651 514.310364,78.445450 510.417084,87.966087 
	C509.526855,90.142982 508.810028,92.174110 509.000000,94.500000 
"/>
<path fill="none" opacity="1.000000" stroke="#ffffff" stroke-linecap="round" stroke-linejoin="round" stroke-width="7.000000"
	d="
M195.500000,54.000000 
	C193.755630,55.446838 190.007019,52.917095 189.617874,56.512756 
	C189.319641,59.268524 191.746780,60.583130 193.926758,62.104931 
	C197.551346,64.635193 201.559998,66.204453 205.500000,68.000000 
"/>
<path fill="none" opacity="1.000000" stroke="#ffffff" stroke-linecap="round" stroke-linejoin="round" stroke-width="5.000000"
	d="
M508.500000,24.000000 
	C508.898926,26.913254 505.774933,27.797867 505.027069,30.009151 
	C504.081573,32.804558 503.333344,35.666672 502.500031,38.500004 
"/>
<path fill="none" opacity="1.000000" stroke="#ffffff" stroke-linecap="round" stroke-linejoin="round" stroke-width="6.000000"
	d="
M492.500000,23.500000 
	C490.823822,28.228411 487.596466,32.347420 487.000000,37.500000 
"/>
<path fill="none" opacity="1.000000" stroke="#ffffff" stroke-linecap="round" stroke-linejoin="round" stroke-width="4.000000"
	d="
M139.500000,92.500000 
	C142.519104,94.496178 141.411835,97.317635 141.000000,99.999992 
	C142.500000,101.875725 144.000000,100.187233 145.500000,100.000000 
"/>
<path fill="none" opacity="1.000000" stroke="#ffffff" stroke-linecap="round" stroke-linejoin="round" stroke-width="2.000000"
	d="
M586.500000,25.000000 
	C584.317505,27.901007 586.348389,31.467287 585.000000,34.500000 
"/>
<path fill="none" opacity="1.000000" stroke="#ffffff" stroke-linecap="round" stroke-linejoin="round" stroke-width="2.000000"
	d="
M242.500000,91.000000 
	C242.500000,92.166664 242.500000,93.333336 242.500000,94.500000 
"/>
<path fill="none" opacity="1.000000" stroke="#ffffff" stroke-linecap="round" stroke-linejoin="round" stroke-width="2.000000"
	d="
M328.500000,91.000000 
	C328.500000,92.166664 328.500000,93.333336 328.500000,94.500000 
"/>
</svg>